<?xml version="1.0" standalone="no"?>
<!DOCTYPE svg PUBLIC "-//W3C//DTD SVG 20010904//EN"
 "http://www.w3.org/TR/2001/REC-SVG-20010904/DTD/svg10.dtd">
<svg version="1.0" xmlns="http://www.w3.org/2000/svg"
 width="719.000000pt" height="793.000000pt" viewBox="0 0 719.000000 793.000000"
 preserveAspectRatio="xMidYMid meet">
<metadata>
Created by potrace 1.15, written by Peter Selinger 2001-2017
</metadata>
<g transform="translate(0.000000,793.000000) scale(0.100000,-0.100000)"
fill="#000000" stroke="none">
<path d="M3828 7676 c-86 -108 -138 -260 -138 -406 0 -169 47 -292 250 -655
159 -285 220 -412 271 -560 l38 -110 0 160 c1 202 -19 375 -63 549 -44 171
-79 254 -168 403 -87 145 -151 280 -169 353 -15 63 -16 195 -1 258 5 23 9 42
8 42 0 0 -13 -15 -28 -34z"/>
<path d="M4206 6752 c-3 -5 10 -76 29 -158 79 -339 85 -553 21 -819 -46 -191
-68 -256 -126 -382 -49 -103 -86 -164 -148 -241 l-34 -43 -22 19 c-28 26 -80
52 -103 52 -10 -1 -30 -19 -45 -40 l-28 -40 28 -5 c46 -10 77 -30 77 -50 0
-31 -42 -46 -119 -43 -58 3 -71 8 -87 27 -18 22 -18 25 -4 41 14 15 12 18 -26
35 -22 10 -64 34 -92 53 -49 32 -56 33 -119 28 -70 -5 -130 -29 -163 -66 l-20
-22 55 -51 c31 -29 95 -82 143 -119 l87 -68 0 -55 c0 -50 -2 -55 -22 -55 -31
0 -184 37 -230 55 l-38 15 0 -43 c-1 -93 -20 -405 -30 -481 -38 -288 -114
-514 -226 -672 -63 -89 -222 -232 -237 -213 -2 2 -142 419 -311 925 -170 507
-311 927 -316 933 -4 7 -115 29 -261 51 -277 43 -453 79 -569 116 -93 29 -108
30 -142 1 -21 -17 -85 -147 -75 -152 1 -1 36 -7 77 -14 184 -31 261 -114 247
-265 -6 -57 -183 -773 -580 -2335 l-163 -644 -63 -37 c-114 -69 -272 -110
-423 -110 l-78 0 0 -91 0 -91 538 7 c295 4 553 9 572 11 19 1 124 3 233 3
l197 1 0 69 0 68 -137 6 c-76 2 -154 10 -173 17 -53 19 -100 59 -116 96 -29
70 -19 131 92 544 58 217 109 398 113 402 3 4 56 -1 116 -12 277 -48 352 -54
645 -54 179 0 309 4 349 12 36 6 67 10 69 7 6 -6 104 -348 168 -588 63 -237
63 -238 -10 -305 -79 -73 -203 -111 -363 -112 l-73 0 0 -80 0 -80 83 -1 c45
-1 91 -3 102 -4 11 -1 166 -5 345 -9 377 -8 571 -14 654 -22 59 -5 1380 24
1404 31 8 3 12 29 12 83 l0 79 -102 7 c-111 7 -211 27 -259 52 -40 20 -108 82
-130 117 -16 28 -16 33 23 180 54 207 177 639 183 645 2 2 42 -2 87 -9 55 -9
164 -14 323 -14 246 1 375 12 643 57 68 11 125 19 127 17 2 -2 51 -184 110
-403 97 -360 107 -405 103 -467 -3 -49 -10 -76 -24 -96 -47 -64 -148 -93 -322
-93 l-93 0 3 -73 3 -72 440 -6 c242 -4 587 -10 768 -13 l327 -6 0 93 0 94
-109 7 c-60 3 -144 15 -187 26 -80 21 -233 90 -254 115 -6 7 -85 305 -176 662
-290 1142 -561 2226 -574 2293 -14 74 -5 125 33 181 38 57 82 75 274 115 21 4
21 4 -10 80 -27 64 -38 80 -67 95 -35 17 -36 17 -125 -12 -124 -40 -246 -65
-559 -114 -197 -30 -270 -45 -277 -56 -4 -9 -145 -426 -313 -928 -168 -501
-308 -916 -311 -921 -9 -14 -86 41 -152 108 -132 135 -224 327 -277 582 -35
167 -48 309 -53 601 l-5 296 68 37 c241 132 395 317 471 563 24 81 27 102 27
258 0 152 -3 181 -27 278 -35 140 -100 301 -178 441 -78 139 -105 180 -113
168z m-698 -1668 c25 -17 29 -56 8 -73 -22 -18 -109 -25 -150 -11 -69 22 -80
56 -27 85 36 20 140 19 169 -1z m-1304 -955 c134 -453 243 -825 242 -826 -1
-1 -50 -7 -109 -13 -116 -13 -314 -2 -469 25 -136 24 -339 77 -344 89 -4 11
141 544 331 1216 103 365 96 342 101 337 2 -2 114 -374 248 -828z m3184 231
c231 -822 265 -951 255 -960 -12 -10 -196 -55 -338 -82 -101 -19 -154 -23
-337 -23 -137 0 -221 4 -227 10 -7 7 64 264 231 828 133 449 245 814 249 809
3 -4 79 -266 167 -582z m-1773 -494 c60 -272 175 -504 329 -664 62 -65 191
-160 273 -200 40 -20 73 -40 73 -45 0 -5 -47 -152 -104 -326 -57 -174 -116
-361 -131 -416 -25 -88 -33 -106 -74 -149 -25 -26 -77 -70 -115 -97 -213 -151
-434 -128 -643 65 -78 73 -78 74 -102 162 -13 49 -73 238 -133 420 -59 183
-108 337 -108 343 0 6 28 25 63 42 320 160 525 454 619 892 12 59 24 104 25
100 1 -4 14 -62 28 -127z"/>
<path d="M2646 6672 c-12 -19 -26 -175 -26 -284 0 -119 22 -308 41 -351 7 -16
8 0 4 53 -3 41 -6 191 -6 333 -1 141 -2 257 -4 257 -2 0 -6 -3 -9 -8z"/>
<path d="M5078 1587 c-85 -25 -126 -65 -135 -135 -12 -90 44 -142 202 -186 87
-24 115 -43 115 -75 0 -22 -11 -36 -37 -50 -49 -25 -115 0 -133 51 l-12 33
-79 -3 c-89 -4 -92 -7 -60 -77 40 -88 112 -120 257 -113 81 3 98 7 139 33 59
37 85 83 85 151 0 97 -46 136 -217 183 -87 23 -98 29 -101 51 -7 48 64 67 112
29 14 -11 26 -27 26 -35 0 -11 16 -14 68 -14 81 0 97 8 88 45 -11 45 -35 73
-82 95 -55 27 -171 35 -236 17z"/>
<path d="M4391 1322 c-55 -147 -101 -271 -101 -275 0 -4 38 -7 84 -7 l83 0 13
45 13 46 100 -3 100 -3 15 -42 14 -43 84 0 c46 0 84 4 84 9 0 5 -36 105 -81
223 -44 117 -90 237 -101 266 l-19 52 -93 0 -93 0 -102 -268z"/>
<path d="M5520 1310 l0 -280 90 0 90 0 0 280 0 280 -90 0 -90 0 0 -280z"/>
<path d="M5876 1328 c-55 -145 -101 -269 -104 -275 -3 -10 17 -13 81 -13 l85
0 14 43 15 42 100 3 100 3 13 -46 13 -45 88 0 88 0 -20 53 c-10 28 -57 151
-103 272 l-83 220 -94 3 -94 2 -99 -262z"/>
<path d="M2800 1571 c-117 -36 -182 -132 -184 -270 -1 -92 21 -149 79 -207 44
-44 60 -54 111 -64 169 -35 310 30 349 162 49 167 -19 332 -154 372 -57 17
-157 20 -201 7z m158 -127 c33 -22 52 -74 52 -143 0 -74 -22 -134 -57 -152
-51 -28 -141 -6 -158 39 -16 43 -23 111 -14 161 17 104 97 147 177 95z"/>
<path d="M1011 1313 c-52 -142 -96 -264 -99 -270 -3 -10 16 -13 77 -13 l81 0
11 45 12 46 100 -3 100 -3 11 -40 12 -40 83 -3 c65 -2 82 0 79 10 -3 7 -47
129 -99 270 l-94 258 -90 0 -91 0 -93 -257z"/>
<path d="M1550 1300 l0 -270 80 0 80 0 0 115 0 115 105 0 105 0 0 50 0 50
-106 0 -105 0 3 53 3 52 123 0 122 0 0 53 0 52 -205 0 -205 0 0 -270z"/>
<path d="M2060 1300 l0 -270 80 0 80 0 0 109 c0 61 4 112 9 115 5 4 21 2 34
-3 18 -7 42 -41 82 -115 l57 -106 89 0 89 0 -44 88 c-42 84 -69 118 -110 139
-17 9 -14 13 27 31 57 25 87 70 87 130 0 64 -24 107 -74 132 -38 18 -61 20
-224 20 l-182 0 0 -270z m304 154 c9 -8 16 -28 16 -44 0 -41 -32 -60 -102 -60
l-58 0 0 60 0 60 64 0 c45 0 69 -5 80 -16z"/>
</g>
</svg>
